<?xml version="1.0" encoding="UTF-8" standalone="no"?>
<!-- Created with Inkscape (http://www.inkscape.org/) -->

<svg
   xmlns:dc="http://purl.org/dc/elements/1.1/"
   xmlns:cc="http://creativecommons.org/ns#"
   xmlns:rdf="http://www.w3.org/1999/02/22-rdf-syntax-ns#"
   xmlns:svg="http://www.w3.org/2000/svg"
   xmlns="http://www.w3.org/2000/svg"
   xmlns:sodipodi="http://sodipodi.sourceforge.net/DTD/sodipodi-0.dtd"
   xmlns:inkscape="http://www.inkscape.org/namespaces/inkscape"
   width="210mm"
   height="297mm"
   viewBox="0 0 744.09448819 1052.3622047"
   id="svg2"
   version="1.1"
   inkscape:version="0.91 r13725"
   sodipodi:docname="attempt 1.svg">
  <defs
     id="defs4" />
  <sodipodi:namedview
     id="base"
     pagecolor="#ffffff"
     bordercolor="#666666"
     borderopacity="1.0"
     inkscape:pageopacity="0.0"
     inkscape:pageshadow="2"
     inkscape:zoom="0.72403226"
     inkscape:cx="221.59196"
     inkscape:cy="612.05745"
     inkscape:document-units="px"
     inkscape:current-layer="layer1"
     showgrid="false"
     inkscape:window-width="1366"
     inkscape:window-height="705"
     inkscape:window-x="-8"
     inkscape:window-y="-8"
     inkscape:window-maximized="1" />
  <metadata
     id="metadata7">
    <rdf:RDF>
      <cc:Work
         rdf:about="">
        <dc:format>image/svg+xml</dc:format>
        <dc:type
           rdf:resource="http://purl.org/dc/dcmitype/StillImage" />
      </cc:Work>
    </rdf:RDF>
  </metadata>
  <g
     inkscape:label="Layer 1"
     inkscape:groupmode="layer"
     id="layer1">
    <ellipse
       style="fill:#ba7c24;fill-opacity:1;fill-rule:evenodd;stroke:#000000;stroke-width:5;stroke-linecap:butt;stroke-linejoin:miter;stroke-miterlimit:4;stroke-dasharray:none;stroke-opacity:1"
       id="path4162"
       cx="352.2934"
       cy="283.83377"
       rx="121.21831"
       ry="113.57053" />
  </g>
  <g
     inkscape:groupmode="layer"
     id="layer2"
     inkscape:label="Layer 2">
    <path
       style="fill:none;fill-rule:evenodd;stroke:#000000;stroke-width:5;stroke-linecap:butt;stroke-linejoin:miter;stroke-miterlimit:4;stroke-dasharray:none;stroke-opacity:1"
       d="m 365.95713,766.22426 c 3.20094,58.57831 -1.9985,176.10729 -4.79282,190.07636 -6.67494,33.3686 74.9449,7.03689 65.65596,0.84426 0,0 11.43065,-201.56108 2.69541,-237.92972 1.53286,-75.55788 -50.7643,-145.39251 -29.08824,-182.37919 15.28227,-17.70402 3.86343,-42.71734 -1.7079,-69.2617 -4.52527,-21.56045 -5.29516,-39.51137 -5.29516,-39.51137 l -92.70921,0.63697 c 0,0 -1.86683,14.10055 -8.85781,34.41511 -6.99098,20.31456 -19.1061,46.84312 -6.45497,71.69913 20.24171,52.08271 -18.06658,98.804 -17.62912,180.05166 -8.62139,36.36892 -5.12196,244.30146 -5.12196,244.30146 0,0 82.89046,28.04307 67.59856,0.53684 -11.11068,-19.98528 -6.11807,-144.06658 0.68624,-192.84038 4.89298,-35.07316 16.73107,-84.7496 20.86094,-87.22752 2.24993,0 12.18881,50.51316 14.16008,86.58809 z"
       id="path4181"
       inkscape:connector-curvature="0"
       sodipodi:nodetypes="sscccsccscccsscs" />
    <path
       style="fill:none;fill-rule:evenodd;stroke:#000000;stroke-width:4.57075262;stroke-linecap:butt;stroke-linejoin:miter;stroke-miterlimit:4;stroke-dasharray:none;stroke-opacity:1"
       d="m 368.79957,397.29565 c -1.6711,15.13972 -4.81718,30.88002 15.84714,30.72444"
       id="path4191"
       inkscape:connector-curvature="0"
       sodipodi:nodetypes="cc" />
    <path
       style="fill:none;fill-rule:evenodd;stroke:#000000;stroke-width:5;stroke-linecap:butt;stroke-linejoin:miter;stroke-miterlimit:4;stroke-dasharray:none;stroke-opacity:1"
       d="m 330.92536,394.27512 c -1.84687,17.57903 6.85462,36.6953 -15.94859,35.39521"
       id="path4193"
       inkscape:connector-curvature="0"
       sodipodi:nodetypes="cc" />
    <path
       style="fill:none;fill-rule:evenodd;stroke:#000000;stroke-width:5;stroke-linecap:butt;stroke-linejoin:miter;stroke-miterlimit:4;stroke-dasharray:none;stroke-opacity:1"
       d="m 298.32925,426.69948 c 0,0 -29.00424,-11.04923 -32.45712,37.29115 0,0 -40.05346,187.83693 -71.82,214.07886 -31.76654,26.24192 35.21942,40.05346 39.36288,22.09846 4.14347,-17.955 46.95923,-133.97192 53.865,-156.07039"
       id="path4195"
       inkscape:connector-curvature="0"
       sodipodi:nodetypes="ccssc" />
    <path
       sodipodi:nodetypes="ccssc"
       inkscape:connector-curvature="0"
       id="path4197"
       d="m 392.4941,428.08063 c 0,0 29.00424,-11.04923 32.45712,37.29115 0,0 40.05346,187.83693 71.82,214.07886 31.76654,26.24192 -35.21942,40.05346 -39.36288,22.09846 -4.14347,-17.955 -52.48385,-140.87769 -59.38962,-162.97616"
       style="fill:none;fill-rule:evenodd;stroke:#000000;stroke-width:5;stroke-linecap:butt;stroke-linejoin:miter;stroke-miterlimit:4;stroke-dasharray:none;stroke-opacity:1" />
    <path
       style="opacity:0.01000001;fill:#ba7c24;fill-opacity:1;stroke:#000000;stroke-width:6.90576982;stroke-linejoin:miter;stroke-miterlimit:4;stroke-dasharray:none;stroke-opacity:1"
       d="m 333.53493,412.61332 c 0.26612,-7.02701 0.57688,-12.82105 0.69058,-12.87566 0.1137,-0.0546 7.10862,0.16644 15.54427,0.49122 l 15.33755,0.5905 -0.0617,9.17686 c -0.0339,5.04728 0.69965,10.57528 1.63018,12.28446 l 1.69187,3.10759 -17.6583,7e-4 -17.65831,7e-4 0.48385,-12.77637 z"
       id="path4199"
       inkscape:connector-curvature="0" />
    <path
       style="opacity:0.01000001;fill:#ba7c24;fill-opacity:1;stroke:#000000;stroke-width:6.90576982;stroke-linejoin:miter;stroke-miterlimit:4;stroke-dasharray:none;stroke-opacity:1"
       d="m 333.53493,412.61332 c 0.26612,-7.02701 0.57688,-12.82105 0.69058,-12.87566 0.1137,-0.0546 7.10862,0.16644 15.54427,0.49122 l 15.33755,0.5905 -0.0617,9.17686 c -0.0339,5.04728 0.69965,10.57528 1.63018,12.28446 l 1.69187,3.10759 -17.6583,7e-4 -17.65831,7e-4 0.48385,-12.77637 z"
       id="path4201"
       inkscape:connector-curvature="0" />
    <path
       style="opacity:0.01000001;fill:#ba7c24;fill-opacity:1;stroke:#000000;stroke-width:6.90576982;stroke-linejoin:miter;stroke-miterlimit:4;stroke-dasharray:none;stroke-opacity:1"
       d="m 333.49473,412.11746 0.44366,-13.27703 4.21774,0.84355 c 2.31976,0.46395 9.48129,0.84354 15.91451,0.84354 l 11.69677,0 -0.91087,6.62282 c -0.60291,4.38368 -0.23439,8.58632 1.09,12.43038 l 2.00087,5.80757 -17.44816,0.003 -17.44817,0.003 0.44365,-13.27703 z"
       id="path4203"
       inkscape:connector-curvature="0" />
    <path
       style="opacity:0.01000001;fill:#ba7c24;fill-opacity:1;stroke:#000000;stroke-width:6.90576982;stroke-linejoin:miter;stroke-miterlimit:4;stroke-dasharray:none;stroke-opacity:1"
       d="m 370.29429,968.24875 c -6.12346,-2.48209 -6.49852,-4.25523 -4.89369,-23.13541 4.5962,-54.07219 5.77186,-161.41448 2.14605,-195.94113 -3.8177,-36.35392 -10.54646,-70.67428 -14.12548,-72.04767 -4.93867,-1.89515 -9.30105,8.74744 -16.31494,39.80241 -5.74313,25.42855 -10.03818,53.1299 -12.35009,79.65304 -5.00548,57.42509 -4.9506,136.64891 0.10789,155.71853 3.9862,15.02733 3.9481,15.13072 -5.74867,15.59814 -8.57878,0.41355 -25.67632,-2.72877 -43.13031,-7.92678 l -9.48565,-2.82496 -0.90772,-23.01581 c -1.91364,-48.52165 0.18625,-178.72769 3.2709,-202.81522 0.77823,-6.07708 1.96273,-19.7505 2.63223,-30.38539 1.50111,-23.84478 4.19404,-39.97099 11.87797,-71.12942 8.24408,-33.42988 10.5787,-46.88101 10.65709,-61.40183 0.0764,-14.16248 -1.96765,-25.59868 -6.55261,-36.6601 -6.74193,-16.26521 -5.83521,-28.79053 4.21863,-58.2761 3.44653,-10.10787 7.45204,-23.27029 8.90113,-29.24981 1.4491,-5.97953 2.85693,-11.09408 3.12852,-11.36568 0.2716,-0.27159 19.87747,-0.91729 43.56862,-1.43488 36.59173,-0.79944 43.07862,-0.64788 43.10011,1.00702 0.0875,6.73968 4.84437,33.75081 9.04991,51.38887 4.81208,20.18189 6.182,34.24745 4.01056,41.17806 -0.56859,1.8148 -2.80595,5.88711 -4.97189,9.04959 -2.57748,3.76337 -4.50925,9.0808 -5.59128,15.39069 -2.07067,12.07524 0.44955,29.20779 7.75976,52.75109 21.31181,68.63694 23.45006,77.69949 25.99666,110.18186 3.21363,40.99024 1.70027,176.92971 -2.61414,234.81905 l -0.85353,11.45225 -5.33001,2.71916 c -12.10432,6.17517 -39.52823,10.1544 -47.55602,6.90043 z"
       id="path4205"
       inkscape:connector-curvature="0" />
    <path
       style="opacity:0.01000001;fill:#ba7c24;fill-opacity:1;stroke:#000000;stroke-width:6.90576982;stroke-linejoin:miter;stroke-miterlimit:4;stroke-dasharray:none;stroke-opacity:1"
       d="m 370.29429,968.24875 c -6.12346,-2.48209 -6.49852,-4.25523 -4.89369,-23.13541 4.5962,-54.07219 5.77186,-161.41448 2.14605,-195.94113 -3.8177,-36.35392 -10.54646,-70.67428 -14.12548,-72.04767 -4.93867,-1.89515 -9.30105,8.74744 -16.31494,39.80241 -5.74313,25.42855 -10.03818,53.1299 -12.35009,79.65304 -5.00548,57.42509 -4.9506,136.64891 0.10789,155.71853 3.9862,15.02733 3.9481,15.13072 -5.74867,15.59814 -8.57878,0.41355 -25.67632,-2.72877 -43.13031,-7.92678 l -9.48565,-2.82496 -0.90772,-23.01581 c -1.91364,-48.52165 0.18625,-178.72769 3.2709,-202.81522 0.77823,-6.07708 1.96273,-19.7505 2.63223,-30.38539 1.50111,-23.84478 4.19404,-39.97099 11.87797,-71.12942 8.24408,-33.42988 10.5787,-46.88101 10.65709,-61.40183 0.0764,-14.16248 -1.96765,-25.59868 -6.55261,-36.6601 -6.74193,-16.26521 -5.83521,-28.79053 4.21863,-58.2761 3.44653,-10.10787 7.45204,-23.27029 8.90113,-29.24981 1.4491,-5.97953 2.85693,-11.09408 3.12852,-11.36568 0.2716,-0.27159 19.87747,-0.91729 43.56862,-1.43488 36.59173,-0.79944 43.07862,-0.64788 43.10011,1.00702 0.0875,6.73968 4.84437,33.75081 9.04991,51.38887 4.81208,20.18189 6.182,34.24745 4.01056,41.17806 -0.56859,1.8148 -2.80595,5.88711 -4.97189,9.04959 -2.57748,3.76337 -4.50925,9.0808 -5.59128,15.39069 -2.07067,12.07524 0.44955,29.20779 7.75976,52.75109 21.31181,68.63694 23.45006,77.69949 25.99666,110.18186 3.21363,40.99024 1.70027,176.92971 -2.61414,234.81905 l -0.85353,11.45225 -5.33001,2.71916 c -12.10432,6.17517 -39.52823,10.1544 -47.55602,6.90043 z"
       id="path4207"
       inkscape:connector-curvature="0" />
    <path
       style="opacity:0.01000001;fill:#ba7c24;fill-opacity:1;stroke:#000000;stroke-width:6.90576982;stroke-linejoin:miter;stroke-miterlimit:4;stroke-dasharray:none;stroke-opacity:1"
       d="m 370.29429,968.24875 c -6.12346,-2.48209 -6.49852,-4.25523 -4.89369,-23.13541 4.5962,-54.07219 5.77186,-161.41448 2.14605,-195.94113 -3.8177,-36.35392 -10.54646,-70.67428 -14.12548,-72.04767 -4.93867,-1.89515 -9.30105,8.74744 -16.31494,39.80241 -5.74313,25.42855 -10.03818,53.1299 -12.35009,79.65304 -5.00548,57.42509 -4.9506,136.64891 0.10789,155.71853 3.9862,15.02733 3.9481,15.13072 -5.74867,15.59814 -8.57869,0.41353 -25.67629,-2.72876 -43.12982,-7.92665 l -9.48516,-2.8248 -0.90399,-23.83123 c -1.88949,-49.81155 0.18184,-177.91488 3.26619,-202.00009 0.77823,-6.07708 1.96273,-19.7505 2.63223,-30.38539 1.50111,-23.84478 4.19404,-39.97099 11.87797,-71.12942 8.24408,-33.42988 10.5787,-46.88101 10.65709,-61.40183 0.0764,-14.16248 -1.96765,-25.59868 -6.55261,-36.6601 -6.74193,-16.26521 -5.83521,-28.79053 4.21863,-58.2761 3.44653,-10.10787 7.45204,-23.27029 8.90113,-29.24981 1.4491,-5.97953 2.85693,-11.09408 3.12852,-11.36568 0.2716,-0.27159 19.87747,-0.91729 43.56862,-1.43488 36.59173,-0.79944 43.07862,-0.64788 43.10011,1.00702 0.0872,6.7103 4.83451,33.70945 8.99648,51.16476 4.75307,19.93443 6.1807,34.64178 4.02943,41.51103 -0.54959,1.75492 -2.70265,5.67836 -4.7846,8.71874 -2.08193,3.04038 -4.5515,9.21858 -5.48793,13.72933 -3.18987,15.3655 0.13315,32.34459 16.32471,83.41154 16.86592,53.19382 18.91623,71.67194 18.79848,169.41849 -0.0707,58.67709 -1.59843,111.67437 -4.232,146.80532 l -0.85852,11.45225 -5.33001,2.71916 c -12.10432,6.17517 -39.52823,10.1544 -47.55602,6.90043 z"
       id="path4209"
       inkscape:connector-curvature="0" />
    <path
       style="opacity:0.01000001;fill:#ba7c24;fill-opacity:1;stroke:#000000;stroke-width:6.90576982;stroke-linejoin:miter;stroke-miterlimit:4;stroke-dasharray:none;stroke-opacity:1"
       d="m 370.29429,968.24875 c -6.12194,-2.48147 -6.49796,-4.25687 -4.89993,-23.13541 4.63607,-54.76873 5.80472,-161.16105 2.15229,-195.94113 -3.8177,-36.35392 -10.54646,-70.67428 -14.12548,-72.04767 -4.93867,-1.89515 -9.30105,8.74744 -16.31494,39.80241 -9.38486,41.55282 -13.60264,79.13733 -15.67604,139.68882 -1.41727,41.38966 0.0777,82.97229 3.43994,95.68275 3.97676,15.0335 3.94087,15.13077 -5.75477,15.59814 -8.57869,0.41353 -25.6763,-2.72876 -43.12982,-7.92665 l -9.48516,-2.8248 -0.90399,-23.83123 c -1.88949,-49.81155 0.18184,-177.91488 3.26619,-202.00009 0.77823,-6.07708 1.96273,-19.7505 2.63223,-30.38539 1.50111,-23.84478 4.19404,-39.97099 11.87797,-71.12942 8.48569,-34.40962 10.63813,-47.13821 10.62679,-62.84251 -0.0102,-14.18678 -2.18677,-25.50587 -7.06245,-36.72837 -6.19828,-14.2668 -5.04603,-28.01197 4.75877,-56.76715 3.44653,-10.10787 7.45204,-23.27029 8.90113,-29.24981 1.4491,-5.97953 2.85693,-11.09408 3.12852,-11.36568 0.2716,-0.27159 19.87747,-0.91729 43.56862,-1.43488 36.59173,-0.79944 43.07862,-0.64788 43.10011,1.00702 0.0872,6.7103 4.83451,33.70945 8.99648,51.16476 4.75307,19.93443 6.1807,34.64178 4.02943,41.51103 -0.54959,1.75492 -2.70265,5.67836 -4.7846,8.71874 -2.08193,3.04038 -4.5515,9.21858 -5.48793,13.72933 -3.18987,15.3655 0.13315,32.34459 16.32471,83.41154 16.86592,53.19382 18.91623,71.67194 18.79848,169.41849 -0.0707,58.67709 -1.59843,111.67437 -4.232,146.80532 l -0.85852,11.45225 -5.33001,2.71916 c -12.10432,6.17517 -39.52823,10.1544 -47.55602,6.90043 z"
       id="path4211"
       inkscape:connector-curvature="0" />
    <path
       style="opacity:0.01000001;fill:#ba7c24;fill-opacity:1;stroke:#000000;stroke-width:6.90576982;stroke-linejoin:miter;stroke-miterlimit:4;stroke-dasharray:none;stroke-opacity:1"
       d="m 370.29429,968.24875 c -6.12194,-2.48147 -6.49796,-4.25687 -4.89993,-23.13541 4.63607,-54.76873 5.80472,-161.16105 2.15229,-195.94113 -3.8177,-36.35392 -10.54646,-70.67428 -14.12548,-72.04767 -4.93867,-1.89515 -9.30105,8.74744 -16.31494,39.80241 -9.38486,41.55282 -13.60264,79.13733 -15.67604,139.68882 -1.41727,41.38966 0.0777,82.97229 3.43994,95.68275 3.97676,15.0335 3.94087,15.13077 -5.75477,15.59814 -8.57869,0.41353 -25.6763,-2.72876 -43.12982,-7.92665 l -9.48516,-2.8248 -0.90399,-23.83123 c -1.88949,-49.81155 0.18184,-177.91488 3.26619,-202.00009 0.77823,-6.07708 1.96273,-19.7505 2.63223,-30.38539 1.50111,-23.84478 4.19404,-39.97099 11.87797,-71.12942 8.48569,-34.40962 10.63813,-47.13821 10.62679,-62.84251 -0.0102,-14.18678 -2.18677,-25.50587 -7.06245,-36.72837 -6.19828,-14.2668 -5.04603,-28.01197 4.75877,-56.76715 3.44653,-10.10787 7.45204,-23.27029 8.90113,-29.24981 1.4491,-5.97953 2.85693,-11.09408 3.12852,-11.36568 0.2716,-0.27159 19.87747,-0.91729 43.56862,-1.43488 36.59173,-0.79944 43.07862,-0.64788 43.10011,1.00702 0.0872,6.7103 4.83451,33.70945 8.99648,51.16476 4.75307,19.93443 6.1807,34.64178 4.02943,41.51103 -0.54959,1.75492 -2.70265,5.67836 -4.7846,8.71874 -2.08193,3.04038 -4.5515,9.21858 -5.48793,13.72933 -3.18987,15.3655 0.13315,32.34459 16.32471,83.41154 16.86592,53.19382 18.91623,71.67194 18.79848,169.41849 -0.0707,58.67709 -1.59843,111.67437 -4.232,146.80532 l -0.85852,11.45225 -5.33001,2.71916 c -12.10432,6.17517 -39.52823,10.1544 -47.55602,6.90043 z"
       id="path4213"
       inkscape:connector-curvature="0" />
  </g>
</svg>
